<?xml version="1.0" encoding="utf-8"?>
<!-- Generator: Adobe Illustrator 16.0.0, SVG Export Plug-In . SVG Version: 6.00 Build 0)  -->
<!DOCTYPE svg PUBLIC "-//W3C//DTD SVG 1.1//EN" "http://www.w3.org/Graphics/SVG/1.1/DTD/svg11.dtd">
<svg version="1.1" id="Layer_2" xmlns="http://www.w3.org/2000/svg" xmlns:xlink="http://www.w3.org/1999/xlink" x="0px" y="0px"
	 width="590px" height="650px" viewBox="0 0 590 650" enable-background="new 0 0 590 650" xml:space="preserve">
<path fill="none" stroke="#FFFFFF" stroke-width="4" stroke-miterlimit="10" d="M504.667,13.001L262,173.001
	c0,0-27.333-3.333-32-5.333s-12-4-12-4s-8.667,2-12-2s-8-7.334-14-14.667s-18.667-8-18.667-8s-6-11.333-6-14s-2-11.333-8.667-12.667
	s-0.666-6-13.333-6.667s-26.667-0.667-31.333,6s-8,12.667-8,18.667s0.667,20.667,0,25.333s2,9.333,2.667,17.333
	s-0.878,14-2.772,19.333s-4.561,9.333-5.228,16.667s0,11.333,0,11.333s-3.26,4.667-0.296,13.333s4.963,5.333,3.63,16.667
	s-10.667,44-12.667,52s-5.333,20-6,22s1.333,9.332,3.333,15.666s-3.595,16.335-3.464,21.668s9.198,8.667-0.002,14s-13.2,14-13.2,16
	s-4,14.664-6,18.664s-8,4-9.333,16s-1.333,16-3.333,22s2.667,5.332,0,16.666s-6,18.666-4.667,22s4.059,7.334-0.304,13.334
	s-3.029,6.666-6.363,17.333s-4,9.999-4,17.333s-6.667,24.667-6.667,24.667L14,604.332l152.667,28l54-44l31.333-54l94-19.334
	l22.667-48.666L408,440.998L287.333,293.001l248-76.667L570,181.001l-6-17.333l-24.667,8l-8-24l11.334-2.667L504.667,13.001z"/>
</svg>
