<?xml version="1.0" encoding="utf-8"?>
<!-- Generator: Adobe Illustrator 16.0.0, SVG Export Plug-In . SVG Version: 6.00 Build 0)  -->
<!DOCTYPE svg PUBLIC "-//W3C//DTD SVG 1.1//EN" "http://www.w3.org/Graphics/SVG/1.1/DTD/svg11.dtd">
<svg version="1.1" id="Layer_2" xmlns="http://www.w3.org/2000/svg" xmlns:xlink="http://www.w3.org/1999/xlink" x="0px" y="0px"
	 width="375px" height="715px" viewBox="0 0 375 715" enable-background="new 0 0 375 715" xml:space="preserve">
<path fill="none" stroke="#FFFFFF" stroke-width="4" stroke-miterlimit="10" d="M341.832,587.833c4.667-2,8.667-3.333,10.667-7.333
	s3.999-7.333,6.666-12s2.668-0.667,3.334-12.667s-0.666-16,0-28s5.052-17.999,0.192-31.333s-9.071-23.334-9.299-29.334
	s-0.895-5.332-4.228-16.666s-3.333-10.001-7.333-25.334s-5.999-13.334-7.333-22s-3.333-5.999-10-14.666s-6.668-10.001-15.334-21.334
	S296.499,346.5,285.832,340.5s-4.001-1.333-16.667-11.333s-16.666-6-22.666-18.667s-18.001-18-21.334-22s-8-12.667-11.333-12.667
	s-2.001,6.667-2.667-5.333s0.001-12-11.333-20c-11.333-8-9.74-10-13.87-15.333s-8.129-0.667-10.796-8s1.333,0.666,0-14.667
	s-2-36,4.667-40s24-4.667,23.333-20.667s-1.333-16.667,6.667-24s-2-6,8-7.333s9.333,0.667,13.333-8s7.333-10.667,13.333-12
	s14,4.667,14,0s-4-10.667-11.333-12s-11.333,0.667-17.333,0s-14-2-16-5.333s-2-5.333-8-6.667s-5.333,5.333-12-8.667
	s-9.073-17.333-7.87-19.333s7.873-2,1.538-10s-11.001-8.667-19.001-10s-2.667,4-16.667-3.333s-4-18-23.333-12.667
	s-10.667,7.333-14,14s-10,13.333-18,11.333s-10-9.333-16.667,0s1.333,12-11.333,8.667s-12-9.333-22.667-2.667
	s-0.667,13.333-14,6.667s-18.667-10.667-19.333,3.333s6.667,12,15.333,22s8.667,2,12.667,9.333s-4,13.333,2.667,24
	s20,20.667,31.333,26s11.333-10,20-9.333s24,1.333,20,9.333s-22.667,3.333-5.333,11.333s36,6,26.667,18s-7.333,18.667-20,18.667
	s-16.667-10-15.333,3.333s-8.667,8-2,15.333s24,20,34.667,25.333s17.333-2,21.333,10.667s6,12,16.667,20s0.261-0.667,14.797,18
	s17.87,7.333,31.203,31.333s8.001,33.334,16.667,34.667s8-3.333,18,8s21.999-1.333,14.666,10.667s-9.999,7.332,3.334,21.332
	s1.999,18.666,4.666,30s2,17.333,0.667,28s-0.666,16.666,4.667,34s-2.666,22,4,38.667s7.334,30,2,30s4-9.334-14.667-0.667
	s-24.001-2-26.667,8.667s6.001,12.666-6.666,13.333s-21.334-6.667-19.334,8s24.666,21.333,20.666,27.333s-10,9.333-14,5.333
	s1.999-7.999-12.667-2.666s-16.253-13.176-23.793,4.412s-22.873,9.588-20.207,16.921s24,6.001,25.333,18.667
	s-3.587-1.334-5.127,23.333s-9.127,34.667,0,40s21.127-3.333,27.127-13.333s22-4.668,27.333-13.334s18,3.333,12-12
	s-0.667-6,3.333-18s0.667-1.333,4.667-17.333s-5.334-28,7.333-18s1.334,12.667,12.667,10s9.333-5.333,23.333-10
	s12-7.334,20.667-12.667S341.832,587.833,341.832,587.833z"/>
</svg>
